<svg width="121" height="45" viewBox="0 0 121 45" fill="none" xmlns="http://www.w3.org/2000/svg">
<path fill-rule="evenodd" clip-rule="evenodd" d="M60.2098 0C60.5259 0 62.3075 0.0417743 64.1609 0.125323C66.0144 0.194947 68.2557 0.320269 69.1178 0.403818C69.9799 0.487367 72.9971 0.682313 75.7988 0.835486C78.6006 1.00258 82.2644 1.21145 83.9167 1.30893C85.569 1.4064 87.7098 1.55957 88.658 1.6292C89.6063 1.71275 91.6465 1.85199 93.1839 1.93554C94.7213 2.01909 97.408 2.18619 99.1465 2.29759C100.885 2.40898 103.112 2.56216 104.103 2.63178C105.095 2.7014 106.833 2.82673 107.983 2.91027C109.132 2.9799 110.684 3.11915 111.431 3.18877C112.178 3.25839 113.744 3.36979 114.922 3.42549C116.46 3.50904 117.034 3.57866 117.034 3.70399C117.034 3.84323 116.129 3.88501 112.968 3.88501C110.741 3.89893 105.454 3.88501 101.23 3.88501C97.0057 3.88501 89.6351 3.81538 84.8506 3.74576C80.0661 3.67614 75.023 3.53689 73.6437 3.45334C72.2644 3.36979 68.2557 3.30017 64.7356 3.30017C58.9885 3.30017 58.1264 3.32802 56.2586 3.59259C55.1092 3.75968 54.1465 3.88501 54.1034 3.88501C54.0603 3.88501 54.0891 3.94071 54.1753 4.01033C54.2615 4.07995 54.908 4.26098 55.6121 4.42807C56.3161 4.59517 57.3218 4.81797 57.8391 4.94329C58.3563 5.05469 59.1609 5.24963 59.6351 5.36103C60.1092 5.48636 61.0431 5.69523 61.7184 5.83447C62.3937 5.98765 63.8161 6.30792 64.8793 6.57249C65.9425 6.83706 67.4655 7.18518 68.2557 7.3662C69.046 7.5333 69.8506 7.71432 70.0517 7.77002C70.2529 7.82571 70.4253 7.99281 70.454 8.14598C70.4971 8.39663 70.3534 8.41055 68.3707 8.50803C67.2069 8.56373 65.2385 8.67513 64.0172 8.75867C62.796 8.84222 60.6983 8.96755 59.3477 9.03717C57.9971 9.10679 54.1609 9.30174 50.7988 9.45491C47.4368 9.60808 44.6351 9.80303 44.5488 9.85873C44.4626 9.92835 43.7586 10.179 42.9684 10.4296C42.1782 10.6803 41.2155 11.0006 40.8132 11.1398C40.4253 11.2791 39.6494 11.5436 39.0891 11.7386C38.5287 11.9335 37.9828 12.1006 37.8534 12.1006C37.7241 12.1006 37.5805 12.1424 37.523 12.1981C37.4655 12.2677 37.1782 12.3791 36.8908 12.4766C36.5891 12.5601 35.2241 13.0197 33.8448 13.4792C32.4655 13.9526 29.2902 14.997 26.8046 15.8046C24.319 16.6122 22.1494 17.3224 21.9914 17.392C21.8333 17.4477 21.3161 17.6287 20.842 17.7819C20.3678 17.9351 18.8161 18.4225 17.3937 18.868C15.9713 19.3136 14.7787 19.7175 14.7356 19.7592C14.6925 19.801 14.4339 19.982 14.1609 20.1352C13.8879 20.3023 13.2845 20.8314 12.8247 21.3188C12.3793 21.7922 11.8764 22.3353 11.7184 22.5024C11.431 22.8227 11.3592 22.8227 8.34195 22.8227C6.57471 22.8227 5.12356 22.767 4.96552 22.6834C4.77873 22.5999 4.67816 22.4049 4.67816 22.1543C4.69253 21.9454 4.77873 21.4302 4.87931 21.0125C4.99425 20.5947 5.25287 19.8428 5.46839 19.3415C5.68391 18.8402 6.18678 18.0047 6.60345 17.4756C7.00575 16.9464 7.79598 16.1388 8.34195 15.6793C8.88793 15.2337 9.67816 14.6906 10.0661 14.4957C10.4684 14.2868 11.0144 14.0362 11.2874 13.9387C11.5603 13.8273 12.4943 13.6045 13.3707 13.4235C14.2471 13.2424 15.3678 12.9918 15.8851 12.8804C16.4023 12.7551 17.4368 12.5323 18.1839 12.3791C18.931 12.2259 19.908 12.0171 20.3391 11.8917C20.7701 11.7803 21.546 11.5854 22.0632 11.4601C22.5805 11.3348 23.5144 11.112 24.1465 10.9727C24.7787 10.8335 26.5603 10.4018 28.0977 10.0119C29.6351 9.62201 32.0345 8.99539 33.4138 8.6055C34.7931 8.22953 36.5747 7.71432 37.3649 7.4776C38.1552 7.24088 39.7787 6.73958 40.9569 6.34969C42.3075 5.91802 43.6724 5.37496 44.6207 4.87367C45.454 4.42807 46.2586 3.99641 46.4167 3.91286C46.5747 3.82931 47.408 3.42549 48.2845 3.00775C49.1609 2.60393 50.1523 2.15834 50.5115 2.04694C50.8707 1.92162 51.7759 1.60135 52.523 1.33678C53.2701 1.07221 54.1465 0.821561 54.4626 0.765862C54.7787 0.710163 55.4253 0.570915 55.8994 0.459517C56.3736 0.348119 57.408 0.208871 58.1983 0.139248C58.9885 0.0835486 59.8937 0.0139248 60.2098 0V0ZM80.1092 9.59416C80.9713 9.59416 81.7902 9.62201 81.9052 9.66378C82.0201 9.70556 82.1207 9.8448 82.1207 9.97013C82.1207 10.1094 82.0488 10.3043 81.9483 10.3879C81.8333 10.5132 81.3448 10.5689 80.5833 10.5689C79.7787 10.5689 79.3621 10.6246 79.3046 10.736C79.2471 10.8335 79.1609 11.2512 79.0316 12.3791H80.0805C80.6408 12.3791 81.2155 12.407 81.3305 12.4487C81.4454 12.4905 81.546 12.6715 81.546 12.8665C81.546 13.1171 81.4598 13.2285 81.2299 13.2842C81.0431 13.326 80.4109 13.3678 78.7442 13.4235L78.5575 14.1893C78.4569 14.6071 78.3132 15.2198 78.2701 15.54C78.2126 15.8603 78.0977 16.1945 78.0259 16.278C77.954 16.3616 77.7529 16.4173 77.5948 16.3894C77.408 16.3616 77.2931 16.2223 77.2644 15.9995C77.2356 15.8046 77.4511 14.5235 77.7241 13.145C78.0115 11.7664 78.2557 10.5689 78.2557 10.4714C78.2701 10.3879 78.3276 10.1511 78.3994 9.9562C78.5287 9.59416 78.5287 9.59416 80.1092 9.59416V9.59416ZM82.9397 9.59416C83.0833 9.59416 83.2845 9.64986 83.3994 9.70556C83.5575 9.80303 83.5718 9.94228 83.4425 10.4436C83.3563 10.7778 83.2414 11.2791 83.1983 11.5436C83.1552 11.8082 83.0115 12.5601 82.8966 13.2146C82.7816 13.8691 82.7098 14.5653 82.7529 14.7742C82.796 14.997 82.9828 15.2615 83.1695 15.3729C83.3419 15.4843 83.7586 15.5818 84.1034 15.5818C84.5919 15.5818 84.7644 15.5122 85.0661 15.1641C85.2672 14.9273 85.4971 14.4817 85.5833 14.1476C85.6695 13.8273 85.7988 13.2146 85.8707 12.7969C85.9425 12.3791 86.0287 11.8778 86.0718 11.6829C86.1149 11.4879 86.1868 11.0563 86.2443 10.7081C86.2874 10.36 86.3879 9.97013 86.4454 9.83088C86.5172 9.70556 86.6897 9.59416 86.8333 9.59416C86.9626 9.59416 87.1494 9.64986 87.2213 9.73341C87.317 9.82624 87.2596 10.5086 87.0488 11.7803C86.8764 12.8386 86.6322 14.0362 86.5172 14.4261C86.3592 14.9413 86.0862 15.359 85.6408 15.7907C85.1379 16.278 84.8506 16.4312 84.3908 16.5008C84.046 16.5426 83.6149 16.5426 83.4138 16.4869C83.2126 16.4312 82.8391 16.2641 82.5948 16.1249C82.25 15.9299 82.0488 15.6654 81.8764 15.1919C81.6609 14.5931 81.6609 14.4539 81.8764 13.4235C81.9914 12.8108 82.1351 11.9892 82.1925 11.6132C82.2356 11.2234 82.3506 10.6942 82.4224 10.4296C82.5086 10.1651 82.5948 9.85873 82.6379 9.76126C82.6667 9.67771 82.796 9.59416 82.9397 9.59416ZM89.3333 9.59416C89.5201 9.58023 89.7356 9.66378 89.8218 9.76126C89.8937 9.85873 90.2098 10.5689 90.5115 11.3348C90.8132 12.1006 91.2299 13.0893 91.4454 13.5349C91.6466 13.9665 91.8477 14.3286 91.8908 14.3286C91.9339 14.3286 92.0776 13.5906 92.2213 12.6994C92.3649 11.7943 92.5661 10.736 92.6667 10.36C92.8103 9.85873 92.9253 9.64986 93.1264 9.62201C93.2701 9.60808 93.4856 9.63593 93.5718 9.69163C93.7155 9.77518 93.6868 10.1511 93.4569 11.4044C93.2845 12.2816 93.0546 13.4792 92.9397 14.0501C92.8247 14.621 92.6954 15.3172 92.6523 15.5818C92.6092 15.8464 92.5086 16.1527 92.408 16.2502C92.3218 16.3477 92.1207 16.4312 91.9626 16.4312C91.8046 16.4312 91.6034 16.3477 91.5029 16.2502C91.4167 16.1527 91.2155 15.6932 91.0575 15.2337C90.8994 14.7742 90.6552 14.1476 90.5259 13.8412C90.3965 13.5349 90.2098 13.0893 90.0948 12.8665C89.9942 12.6298 89.8649 12.2538 89.8075 12.031C89.75 11.7803 89.6638 11.6689 89.592 11.7525C89.5201 11.8221 89.4052 12.2399 89.319 12.6576C89.2328 13.0753 89.046 13.9526 88.931 14.6071C88.8017 15.2615 88.6437 15.9299 88.5718 16.097C88.5 16.278 88.3132 16.4173 88.1552 16.4173C87.9971 16.4173 87.8103 16.3059 87.7385 16.1666C87.6667 16.0135 87.7529 15.359 87.9684 14.3982C88.1552 13.5488 88.4138 12.2677 88.5287 11.5436C88.6437 10.8195 88.8017 10.0815 88.8736 9.9005C88.9598 9.71948 89.1466 9.59416 89.3333 9.59416V9.59416ZM95.3103 9.59416C95.4397 9.59416 95.6264 9.64986 95.6983 9.73341C95.7941 9.82624 95.7653 10.2301 95.6121 10.9449C95.4828 11.5436 95.2672 12.5044 95.1379 13.0753C95.0086 13.6463 94.8362 14.5514 94.75 15.0944C94.6638 15.6236 94.5201 16.1527 94.4339 16.2502C94.3333 16.3477 94.1322 16.4173 93.9741 16.3894C93.7155 16.3477 93.6868 16.2641 93.7299 15.5818C93.7586 15.1641 93.9023 14.2172 94.0603 13.4931C94.2328 12.769 94.4339 11.7246 94.5488 11.1955C94.6494 10.6524 94.8075 10.0815 94.8937 9.9005C94.9799 9.73341 95.1667 9.59416 95.3103 9.59416V9.59416ZM97.6092 9.59416C97.6954 9.59416 97.8247 9.70556 97.8678 9.83088C97.9253 9.97013 97.8965 10.4575 97.796 10.917C97.7098 11.3765 97.4943 12.5044 97.3362 13.4235C97.1782 14.3425 97.0776 15.178 97.092 15.2894C97.1207 15.4565 97.3937 15.4843 98.2845 15.4704C98.9167 15.4565 99.5488 15.4704 99.6925 15.5122C99.8218 15.554 99.9368 15.6793 99.9368 15.7907C99.9368 15.9021 99.8362 16.097 99.7069 16.2084C99.5345 16.3755 99.0891 16.4173 97.6954 16.4173C96.3879 16.4173 95.8994 16.3755 95.8707 16.2363C95.842 16.1527 95.8707 15.8185 95.9425 15.5122C96.0287 15.2058 96.2299 14.1058 96.431 13.0753C96.6178 12.0449 96.8333 10.8892 96.9195 10.5132C97.0057 10.1233 97.1494 9.77518 97.25 9.70556C97.3362 9.64986 97.5086 9.59416 97.6092 9.59416V9.59416ZM104.75 9.62201C105.152 9.66378 105.181 9.70556 105.267 10.36C105.325 10.736 105.468 11.655 105.598 12.3791C105.727 13.1032 105.885 14.064 105.971 14.4957C106.043 14.9413 106.187 15.3033 106.259 15.3033C106.33 15.3033 106.445 14.8856 106.488 14.3564C106.532 13.8412 106.661 12.9779 106.761 12.4487C106.862 11.9057 107.034 11.098 107.135 10.6385C107.236 10.179 107.379 9.76126 107.466 9.70556C107.552 9.64986 108.112 9.59416 108.701 9.59416C109.29 9.59416 110.037 9.66378 110.353 9.73341C110.67 9.80303 111.057 9.99798 111.216 10.1511C111.445 10.3739 111.503 10.6246 111.503 11.3069C111.503 11.8639 111.417 12.2956 111.259 12.5184C111.129 12.7133 110.799 12.9779 110.511 13.1032C110.224 13.2424 109.994 13.4095 109.994 13.4931C109.994 13.5627 110.052 13.7437 110.138 13.8691C110.21 14.0083 110.44 14.5235 110.641 15.0248C110.828 15.5261 111 16.0135 111 16.097C111 16.1945 110.885 16.3059 110.756 16.3477C110.612 16.3894 110.397 16.3894 110.282 16.3616C110.167 16.3198 109.851 15.7628 109.578 15.1362C109.319 14.4957 109.032 13.9108 108.931 13.8134C108.845 13.7298 108.543 13.6045 108.27 13.5627C107.81 13.4792 107.753 13.507 107.595 13.8691C107.494 14.0779 107.351 14.6349 107.264 15.0944C107.193 15.554 107.121 15.9438 107.121 15.9578C107.121 15.9856 107.02 16.097 106.891 16.2084C106.761 16.3337 106.402 16.4173 106.029 16.4173C105.684 16.4173 105.368 16.3755 105.339 16.3059C105.296 16.2502 105.195 15.8603 105.109 15.4426C105.023 15.0248 104.937 14.6628 104.922 14.6349C104.908 14.621 104.42 14.5931 103.83 14.5653C103.241 14.5514 102.695 14.5931 102.595 14.6767C102.494 14.7463 102.178 15.178 101.891 15.6097C101.603 16.0552 101.287 16.4173 101.201 16.4173C101.101 16.4312 100.928 16.3337 100.842 16.2084C100.684 16.0413 100.842 15.6514 101.747 13.9387C102.351 12.8108 103.098 11.4183 103.428 10.8474C103.744 10.2765 104.075 9.76126 104.161 9.69163C104.247 9.63593 104.52 9.60808 104.75 9.62201ZM107.983 11.5019C107.897 12.031 107.839 12.4627 107.868 12.4766C107.897 12.4905 108.17 12.5184 108.486 12.5323C108.802 12.5462 109.247 12.5462 109.463 12.5323C109.678 12.5323 110.023 12.3652 110.21 12.1702C110.497 11.8917 110.555 11.7246 110.497 11.293C110.468 11.0145 110.353 10.736 110.253 10.6803C110.152 10.6246 109.635 10.5689 109.103 10.5689H108.155L107.983 11.5019ZM103.744 12.2956C103.443 12.8247 103.198 13.3121 103.213 13.3817C103.227 13.4374 103.557 13.4792 103.96 13.4792H104.678C104.664 12.6715 104.578 12.1842 104.477 11.8778L104.305 11.3208L103.744 12.2956ZM113.342 9.62201C113.601 9.64986 113.644 9.74733 113.644 10.1511C113.629 10.4157 113.514 11.1398 113.385 11.7525C113.256 12.3652 113.026 13.5906 112.853 14.4678C112.695 15.3451 112.48 16.1527 112.394 16.2502C112.293 16.3477 112.106 16.4312 111.963 16.4173C111.819 16.4173 111.675 16.3337 111.647 16.2363C111.603 16.1388 111.733 15.2198 111.92 14.1893C112.121 13.1589 112.365 11.836 112.48 11.2651C112.595 10.6942 112.767 10.0676 112.853 9.9005C112.978 9.68699 113.141 9.59416 113.342 9.62201V9.62201ZM117.882 9.63593C118.155 9.64986 118.256 9.78911 118.414 10.2904C118.514 10.6385 118.644 11.2234 118.687 11.6132C118.744 11.9892 118.902 13.0057 119.046 13.8691C119.204 14.7324 119.333 15.6236 119.333 15.8603C119.333 16.1109 119.233 16.3059 119.118 16.3477C118.989 16.3894 118.773 16.3477 118.615 16.278C118.399 16.1806 118.328 15.9995 118.328 15.6514C118.328 15.3869 118.27 15.0248 118.198 14.8438C118.083 14.5653 117.983 14.5374 115.741 14.5374L115.31 15.3033C115.08 15.7211 114.764 16.1388 114.592 16.2363C114.348 16.3894 114.261 16.3755 114.089 16.2084C113.888 16.0135 113.988 15.7907 114.894 14.0779C115.454 13.0336 116.201 11.6272 116.56 10.9588C116.905 10.2904 117.264 9.71948 117.365 9.67771C117.451 9.63593 117.681 9.62201 117.882 9.63593V9.63593ZM116.69 12.7969C116.56 13.0614 116.445 13.326 116.445 13.3817C116.445 13.4374 116.776 13.4931 117.178 13.4931C117.825 13.4931 117.897 13.4652 117.882 13.1728C117.882 13.0057 117.853 12.5323 117.81 12.1285C117.767 11.7246 117.681 11.4044 117.609 11.4044C117.537 11.4044 117.351 11.5993 117.207 11.85C117.049 12.1006 116.819 12.5323 116.69 12.7969ZM99.8649 23.3936C101.158 23.3797 101.848 23.4493 102.667 23.6442C103.256 23.7974 104.075 24.062 104.491 24.243C105.095 24.4937 105.253 24.6329 105.253 24.8696C105.253 25.0506 104.937 25.8583 104.549 26.6798C104.161 27.5014 103.744 28.4761 103.615 28.8382C103.457 29.2977 103.299 29.5066 103.126 29.5066C102.983 29.4926 102.394 29.2559 101.805 28.9774C100.928 28.5597 100.54 28.4483 99.7213 28.4204C99.1609 28.3926 98.5431 28.4344 98.3563 28.5179C98.1552 28.6015 97.8822 28.8521 97.7385 29.0888C97.5948 29.3116 97.4942 29.6737 97.4942 29.8825C97.4942 30.0914 97.5805 30.3699 97.6667 30.4952C97.7672 30.6205 98.3276 30.9826 98.931 31.3029C99.5201 31.6231 100.296 32.013 100.641 32.194C101 32.3611 101.647 32.8207 102.078 33.2106C102.624 33.6979 103.011 34.1992 103.299 34.8119C103.658 35.5917 103.716 35.8563 103.716 37.0259C103.716 37.8753 103.615 38.6412 103.457 39.1843C103.313 39.6438 103.011 40.3679 102.796 40.7856C102.566 41.2034 102.006 41.9275 101.546 42.387C100.986 42.93 100.339 43.4035 99.6351 43.7516C99.046 44.0301 98.1121 44.3643 97.5661 44.4757C97.0057 44.5871 96.1437 44.6846 95.6552 44.6846C95.1667 44.6846 94.2615 44.5871 93.6437 44.4618C93.0259 44.3364 91.977 44.0301 91.3161 43.7655C90.6408 43.5009 90.0517 43.2085 89.9942 43.1111C89.9368 43.0136 90.023 42.6237 90.181 42.2477C90.3391 41.8578 90.5833 41.3008 90.727 40.9945C90.8707 40.6881 91.0287 40.2843 91.0718 40.0894C91.1149 39.8944 91.3161 39.3792 91.5172 38.9336C91.7184 38.502 91.9339 38.1399 91.9914 38.126C92.0488 38.126 92.5517 38.3766 93.1121 38.683C93.658 39.0033 94.4626 39.3235 94.908 39.4071C95.3391 39.4906 95.8994 39.5185 96.158 39.4767C96.4167 39.421 96.819 39.2121 97.0489 39.0033C97.3362 38.7526 97.5086 38.4323 97.5661 38.0703C97.6379 37.6386 97.5948 37.4298 97.3793 37.1652C97.2213 36.9702 96.431 36.4968 95.6121 36.1069C94.7787 35.7031 93.7299 35.0765 93.2557 34.7005C92.6379 34.2131 92.2787 33.7954 92.0345 33.2523C91.704 32.57 91.6753 32.3194 91.6753 30.7598C91.6753 29.1584 91.7184 28.9357 92.1063 28.0166C92.3362 27.4596 92.7816 26.6798 93.0833 26.276C93.3851 25.8722 93.9598 25.2874 94.3764 24.9949C94.7787 24.7025 95.5115 24.2709 95.9856 24.062C96.4598 23.8392 97.1351 23.6025 97.4942 23.5328C97.8391 23.4632 98.9167 23.3936 99.8649 23.3936V23.3936ZM115.67 23.4354C117.379 23.4771 117.997 23.5468 118.687 23.7696C119.161 23.9227 119.779 24.1595 120.08 24.2709C120.382 24.3962 120.655 24.6051 120.713 24.7304C120.756 24.8696 120.698 25.2038 120.583 25.4684C120.454 25.733 120.138 26.4292 119.865 27.0001C119.592 27.571 119.261 28.3369 119.132 28.6989C119.003 29.061 118.816 29.3952 118.716 29.4509C118.615 29.4926 118.026 29.2838 117.394 28.9913C116.388 28.5179 116.115 28.4622 115.066 28.4204C113.902 28.3926 113.859 28.4065 113.443 28.8103C113.126 29.1167 113.011 29.3534 113.011 29.7154C113.011 29.98 113.069 30.3281 113.155 30.4813C113.227 30.6345 114.118 31.1775 115.124 31.6928C116.129 32.208 117.25 32.8903 117.609 33.2106C117.954 33.5308 118.443 34.1574 118.687 34.603C119.089 35.3828 119.118 35.5081 119.118 37.0956C119.118 38.3349 119.046 38.9336 118.859 39.421C118.716 39.783 118.414 40.4514 118.184 40.8831C117.954 41.3287 117.422 42.011 117.006 42.4009C116.589 42.7908 115.856 43.3339 115.382 43.5984C114.908 43.8769 114.132 44.2111 113.658 44.3364C113.069 44.5035 112.264 44.5871 111.216 44.601C110.31 44.601 109.29 44.5314 108.845 44.42C108.399 44.3225 107.566 44.044 106.977 43.8073C106.374 43.5845 105.784 43.2782 105.641 43.1389C105.397 42.8883 105.411 42.8186 105.943 41.5793C106.244 40.8692 106.69 39.8109 106.92 39.2121C107.149 38.6134 107.379 38.126 107.437 38.126C107.494 38.1399 108.011 38.3906 108.586 38.683C109.161 38.9893 109.951 39.3096 110.353 39.3931C110.741 39.4767 111.287 39.5045 111.575 39.4628C111.848 39.421 112.279 39.2121 112.552 39.0033C112.968 38.6691 113.011 38.5437 113.026 37.931C113.026 37.5133 112.94 37.1513 112.81 37.0259C112.695 36.9145 111.876 36.455 110.971 36.0234C110.08 35.5917 109.032 34.9651 108.644 34.6309C108.256 34.2967 107.767 33.7118 107.566 33.3359C107.25 32.7371 107.193 32.4168 107.149 31.1079C107.092 29.7572 107.135 29.4369 107.451 28.4622C107.652 27.8495 108.011 27.0697 108.227 26.7216C108.457 26.3735 108.931 25.8165 109.276 25.4684C109.649 25.1063 110.425 24.5772 111.144 24.2291C111.805 23.9088 112.624 23.5746 112.94 23.505C113.256 23.4493 114.477 23.4075 115.67 23.4354V23.4354ZM17.25 23.5885L17.2931 24.0063C17.3218 24.2291 17.2644 24.9532 17.1638 25.6076C17.0776 26.2621 16.9052 27.2229 16.7902 27.766C16.6753 28.2951 16.5172 28.7825 16.4167 28.8382C16.3161 28.8939 14.5057 28.9496 8.55747 28.9496L8.42816 29.2559C8.35632 29.4369 8.27011 29.9661 8.12643 31.3168H11.2155C14.0316 31.3168 14.3046 31.3307 14.3764 31.5535C14.4195 31.6928 14.3477 32.3611 14.2184 33.0574C14.0891 33.7397 13.8879 34.7562 13.5862 36.3297L10.5259 36.3158C8.19827 36.3158 7.43678 36.3575 7.30747 36.4968C7.22126 36.5943 7.07758 37.1513 7.00575 37.7222C6.91954 38.2931 6.87643 38.8083 6.90517 38.864C6.94827 38.9197 8.67241 38.9754 10.7414 38.9754C12.8103 38.9754 14.592 39.0172 14.6925 39.0729C14.8218 39.1564 14.7931 39.6159 14.5776 41.0641C14.4195 42.0945 14.2471 43.1946 14.1897 43.5149C14.1322 43.8351 14.0316 44.1415 13.9598 44.2111C13.9023 44.2807 10.8563 44.3364 0.583332 44.3364L0.540228 43.8491C0.511493 43.5845 0.626435 42.5819 0.798849 41.6211C0.956895 40.6603 1.18678 39.3514 1.30172 38.6969C1.4023 38.0424 1.56034 37.1373 1.64655 36.6778C1.73276 36.2183 1.93391 34.9929 2.10632 33.9625C2.26437 32.9321 2.49425 31.5535 2.60919 30.899C2.72414 30.2446 2.98276 28.685 3.18391 27.4179C3.37069 26.1507 3.58621 24.8139 3.64368 24.438C3.71552 24.0759 3.84483 23.7139 3.95977 23.6442C4.07471 23.5746 6.99138 23.5328 17.25 23.5885V23.5885ZM22.523 23.5328C24.8649 23.5189 25.3965 23.5468 25.5833 23.7278C25.6983 23.8392 25.8276 24.2012 25.8707 24.5215C25.9138 24.8557 26.0431 25.4962 26.1437 25.9558C26.2442 26.4153 26.4167 27.1951 26.5029 27.6963C26.5891 28.1976 26.7328 28.8382 26.8046 29.1167C26.8764 29.4091 27.0057 29.6458 27.092 29.6458C27.1638 29.6458 27.4511 29.2141 27.7098 28.6989C27.9684 28.1837 28.5718 27.0697 29.0172 26.2342C29.477 25.3848 29.9799 24.4797 30.1236 24.2152C30.2816 23.9506 30.4828 23.686 30.569 23.6164C30.6695 23.5607 32.0632 23.5189 33.658 23.5189C35.2529 23.5189 36.6609 23.5468 36.7902 23.5885C36.9052 23.6303 37.0057 23.7835 37.0057 23.9367C37.0057 24.0898 36.6897 24.6608 36.3017 25.2177C35.9282 25.7747 35.181 26.8887 34.6638 27.6963C34.1322 28.504 33.5144 29.4369 33.2701 29.7851C33.0259 30.1332 32.523 30.8851 32.1351 31.456C31.7615 32.0269 31.2299 32.8485 30.4828 34.0321L31.1006 35.912C31.431 36.9424 31.7615 37.9171 31.8333 38.0703C31.8908 38.2235 32.1494 38.9197 32.3937 39.6299C32.6379 40.34 32.8391 41.0223 32.8391 41.1337C32.8391 41.2451 32.8965 41.454 32.9684 41.5793C33.0402 41.7186 33.2414 42.2199 33.3994 42.6933C33.5575 43.1807 33.7011 43.7098 33.7011 43.8769C33.7011 44.1276 33.5862 44.225 33.227 44.3086C32.9684 44.3643 31.5891 44.3921 30.1523 44.3782C28.658 44.3504 27.4655 44.2807 27.3793 44.1972C27.2931 44.1136 27.0776 43.3617 26.8908 42.5262C26.704 41.6768 26.4454 40.3818 26.3161 39.6299C26.1724 38.8083 26.0144 38.2931 25.9138 38.307C25.8276 38.3349 25.4397 38.9476 25.0517 39.6716C24.6494 40.3957 23.931 41.7325 23.4425 42.6376C22.6667 44.0858 22.5086 44.2807 22.1351 44.3504C21.8908 44.3921 20.4684 44.4061 18.9741 44.3643C17.4655 44.3364 16.158 44.2668 16.0575 44.2111C15.9138 44.1415 15.9282 44.0162 16.1006 43.5984C16.2299 43.3199 16.5747 42.7351 16.8764 42.3173C17.1638 41.8996 17.7098 41.1059 18.069 40.5767C18.4138 40.0337 19.0603 39.0729 19.5057 38.4184C19.9368 37.7639 20.5977 36.7614 20.9713 36.1904C21.3592 35.6195 21.819 34.9233 22.0057 34.6587C22.1925 34.3942 22.3362 34.046 22.3362 33.8929C22.3362 33.7397 22.092 32.8346 21.7615 31.8738C21.4454 30.913 20.9138 29.2559 20.5546 28.1837C20.2098 27.1115 19.7931 25.8026 19.6207 25.2874C19.4626 24.7721 19.319 24.2012 19.3046 24.0202C19.2759 23.8253 19.3621 23.6442 19.477 23.6025C19.592 23.5746 20.9569 23.5328 22.523 23.5328V23.5328ZM49.4339 23.505L50.4397 23.9924C50.9856 24.2569 51.6322 24.6607 51.8764 24.8835C52.1063 25.1063 52.4799 25.538 52.6954 25.8304C52.9109 26.1228 53.1983 26.652 53.3276 27.0001C53.4713 27.39 53.5862 28.2394 53.6293 29.2977C53.6724 30.2167 53.6293 31.47 53.5431 32.0826C53.4425 32.6953 53.2557 33.503 53.0977 33.8929C52.954 34.2688 52.6092 34.9651 52.3506 35.4246C52.0919 35.8841 51.4885 36.65 51.0144 37.1095C50.3822 37.7361 49.8218 38.1121 47.8534 39.0311L45.4828 39.0868C43.1839 39.1286 43.0977 39.1425 42.9971 39.4349C42.9253 39.602 42.7816 40.2426 42.681 40.8552C42.5661 41.4679 42.408 42.4427 42.3075 43.0136C42.2069 43.6541 42.0488 44.1276 41.9052 44.239C41.7328 44.3643 41 44.4061 39.1897 44.4061C37.3075 44.4061 36.6753 44.3643 36.5316 44.2111C36.3879 44.0719 36.4167 43.5984 36.6753 41.8857C36.8477 40.7021 37.1207 38.9893 37.2931 38.0703C37.4511 37.1513 37.7385 35.3967 37.9397 34.1714C38.1264 32.946 38.3851 31.4143 38.5 30.7598C38.6293 30.1053 38.8305 28.9774 38.9598 28.2533C39.0747 27.5292 39.2328 26.5267 39.3046 26.0254C39.3764 25.5241 39.4626 24.8418 39.5201 24.4937C39.5776 24.1455 39.7213 23.7835 39.8506 23.686C40.023 23.5607 41.2443 23.5189 49.4339 23.505V23.505ZM44.4914 30.3421C44.3908 30.9965 44.2184 31.9712 44.1034 32.5282C43.9885 33.0852 43.931 33.6004 43.9741 33.684C44.0029 33.7536 44.4052 33.8232 44.8649 33.8093C45.3247 33.8093 45.9138 33.7258 46.1868 33.6422C46.4885 33.5447 46.8477 33.2523 47.092 32.9181C47.3218 32.5979 47.5661 31.9991 47.6523 31.5257C47.7816 30.8851 47.7816 30.5509 47.6523 30.0914C47.5661 29.7711 47.3649 29.3812 47.2069 29.2281C46.9626 28.9913 46.7184 28.9496 45.842 28.9496C45.2529 28.9496 44.75 28.9913 44.7213 29.061C44.6925 29.1167 44.592 29.7015 44.4914 30.3421V30.3421ZM62.5374 23.5189C66.7328 23.5189 67.0776 23.5328 67.7816 23.7974C68.1983 23.9645 68.8736 24.2848 69.2902 24.5354C69.7213 24.7721 70.2241 25.2317 70.4397 25.538C70.6552 25.8444 70.9425 26.3456 71.0862 26.652C71.2299 26.9583 71.4167 27.6128 71.5029 28.1141C71.5747 28.6154 71.6034 29.5205 71.546 30.1332C71.5029 30.7459 71.3305 31.6231 71.1724 32.0826C71.0144 32.5422 70.6695 33.2662 70.4109 33.684C70.1379 34.1017 69.6207 34.7283 69.2328 35.0765C68.8448 35.4246 68.227 35.8702 67.8391 36.0512C67.4511 36.2461 67.1063 36.4689 67.0776 36.5664C67.0488 36.6639 67.2644 37.0816 67.5661 37.4855C67.8678 37.8893 68.3276 38.4184 68.6149 38.6551C68.8879 38.8919 69.2902 39.1564 69.5057 39.24C69.75 39.3374 70.181 39.3514 71.3879 39.1843L71.3017 41.3426C71.2299 42.944 71.1437 43.5845 70.9856 43.8073C70.8563 43.9883 70.454 44.225 70.0805 44.3364C69.7069 44.4618 69.0172 44.5871 68.5431 44.6289C67.8822 44.6985 67.4942 44.6428 66.8908 44.4339C66.431 44.2668 65.7557 43.863 65.3103 43.4592C64.8649 43.0832 64.0891 42.2059 63.5862 41.5097C63.069 40.8135 62.3218 39.7134 61.9339 39.0868C61.3448 38.126 61.2155 37.9728 61.1293 38.2095C61.0718 38.3627 60.9425 38.9197 60.8563 39.4628C60.7701 39.9919 60.5977 40.9109 60.4828 41.4819C60.3822 42.0528 60.2385 42.8743 60.181 43.2921C60.1236 43.7098 59.9799 44.1276 59.8793 44.225C59.75 44.3504 59.0029 44.4061 57.1925 44.4061C55.1379 44.4061 54.6351 44.3643 54.4626 44.1972C54.3333 44.0719 54.2759 43.8491 54.319 43.668C54.3477 43.5009 54.4483 42.9161 54.5345 42.387C54.6207 41.8439 54.75 41.0084 54.8218 40.5071C54.8937 40.0058 55.0805 38.8222 55.2529 37.8614C55.4253 36.9006 55.6552 35.6195 55.7701 35.0068C55.8707 34.3942 56.0287 33.4194 56.1149 32.8485C56.1868 32.2776 56.3448 31.2332 56.4741 30.5509C56.6034 29.8547 56.7902 28.6989 56.9195 27.9748C57.0345 27.2508 57.1782 26.4292 57.25 26.1646C57.3218 25.9001 57.4224 25.2456 57.4655 24.7304C57.5374 24.062 57.6379 23.7556 57.8103 23.6582C57.954 23.5746 59.8937 23.5189 62.5374 23.5189V23.5189ZM62.4511 30.1471C62.3506 30.8294 62.2069 31.6092 62.1351 31.8738C62.0632 32.1383 62.0057 32.4308 62.0057 32.5282C62.0057 32.6536 62.3218 32.7093 63.1121 32.7093C64.0603 32.7093 64.2902 32.6675 64.6494 32.4029C64.8793 32.2219 65.1523 31.8738 65.2529 31.6231C65.3678 31.3725 65.4397 30.8155 65.4397 30.3699C65.4397 29.8825 65.3534 29.4648 65.2241 29.2977C65.0374 29.061 64.8075 29.0053 63.8161 28.9635L62.6236 28.9217L62.4511 30.1471ZM83.4569 23.5189C88.9741 23.505 89.908 23.5328 90.0948 23.7139C90.2241 23.8392 90.2816 24.062 90.2529 24.243C90.2098 24.4101 90.0805 25.0924 89.9655 25.733C89.8506 26.3874 89.7213 27.2647 89.6638 27.6824C89.6207 28.1141 89.5201 28.5458 89.4483 28.6572C89.3477 28.8382 88.7011 28.88 81.4741 28.9496L81.3017 29.5344C81.2155 29.8547 81.1006 30.3838 80.9713 31.3029H84.0603C85.7701 31.3029 87.1782 31.3586 87.2213 31.4143C87.25 31.47 87.2213 31.9295 87.1351 32.4168C87.0632 32.9181 86.8908 33.9207 86.7759 34.6448C86.6466 35.3828 86.4741 36.0512 86.3879 36.1487C86.2586 36.2879 85.5115 36.3297 83.2414 36.3297C80.5402 36.3158 80.2529 36.3436 80.1379 36.5664C80.0661 36.6917 79.9655 37.0956 79.908 37.4298C79.8649 37.7779 79.7931 38.2652 79.6782 38.9615L83.5287 38.9754C85.6408 38.9754 87.4511 39.0172 87.5517 39.0729C87.6954 39.1564 87.7098 39.3653 87.5805 40.0755C87.4942 40.5767 87.3075 41.6907 87.1782 42.5541C87.0201 43.5984 86.8621 44.1693 86.7184 44.2668C86.5891 44.3504 83.9741 44.3921 80.0805 44.3921C74.5488 44.3921 73.6149 44.3643 73.4282 44.1833C73.2845 44.044 73.2414 43.8259 73.2988 43.5288C73.342 43.2782 73.4282 42.7629 73.5144 42.373C73.5862 41.9971 73.7155 41.3426 73.8017 40.9109C73.8736 40.4932 74.0747 39.3096 74.2184 38.2652C74.3764 37.2348 74.6063 35.8284 74.7356 35.1322C74.8649 34.4499 75.0517 33.4194 75.1667 32.8346C75.2672 32.2637 75.454 31.0104 75.5833 30.0496C75.6983 29.1027 75.8707 28.0584 75.9425 27.752C76.0144 27.4457 76.2155 26.4153 76.3879 25.4545C76.5747 24.5076 76.7759 23.6721 76.8621 23.6164C76.9483 23.5607 79.9224 23.5189 83.4569 23.5189V23.5189Z" fill="#E16F30"/>
</svg>
